<svg width="16" height="17" viewBox="0 0 16 17" fill="none" xmlns="http://www.w3.org/2000/svg">
<path d="M10.2649 13.4502L10.267 13.4497L9.88826 16.2735C9.87874 16.3345 9.81717 16.4272 9.68709 16.462C9.5612 16.4958 9.46407 16.4509 9.42261 16.4046L9.42059 16.4019L7.22055 13.5491L7.22001 13.5484C6.31731 12.3821 4.95149 11.611 3.41417 11.3756L3.41241 11.3753L0.771923 10.9806C0.665204 10.9625 0.620784 10.9008 0.610094 10.8609C0.599445 10.8212 0.607082 10.7447 0.69228 10.6752L0.708906 10.6617L2.77978 9.01429L2.78109 9.01324C3.9949 8.04099 4.79221 6.69024 4.99081 5.22887L5.09204 4.48402L5.09031 4.48448L5.46478 1.69216C5.48885 1.62375 5.56014 1.54366 5.68104 1.51127C5.80067 1.47921 5.90186 1.51214 5.95725 1.55888L8.13672 4.38508L8.13726 4.38578C8.97577 5.46914 10.2139 6.21153 11.6179 6.50005L11.6207 6.51037L11.9448 6.55884L14.2647 6.90565L14.2676 6.91642L14.6022 6.95764C14.7118 6.97115 14.7557 7.03309 14.7655 7.0699C14.7754 7.10664 14.7684 7.18246 14.6799 7.24938L14.6798 7.24926L14.6701 7.25698L12.5779 8.92133L12.5765 8.92241C11.3632 9.89444 10.5656 11.2441 10.3665 12.7051L10.2649 13.4502Z" fill="#9DE3C4" stroke="#9DE3C4"/>
</svg>
