<svg width="37" height="38" viewBox="0 0 37 38" fill="none" xmlns="http://www.w3.org/2000/svg">
<path d="M25.2199 28.6053L25.2223 28.6047L24.2126 36.134C24.2125 36.1347 24.2124 36.1355 24.2123 36.1362C24.1492 36.5681 23.7909 36.9762 23.2639 37.1174C22.7476 37.2557 22.2441 37.0919 21.9692 36.7641L21.9536 36.7439L16.8534 30.1302L16.8529 30.1295C14.8719 27.5701 11.8621 25.8629 8.45153 25.3406L8.44977 25.3403L2.32334 24.4245C1.84699 24.3465 1.51353 24.0375 1.41414 23.6666C1.31479 23.2958 1.44963 22.8605 1.82491 22.5546L1.86643 22.5208L6.67031 18.6993L6.67161 18.6982C9.36436 16.5414 11.1174 13.5578 11.5532 10.3509L11.6544 9.60601L11.6522 9.6066L12.6588 2.10125C12.7696 1.68663 13.1334 1.31934 13.6358 1.18471C14.1351 1.05092 14.6316 1.18521 14.9354 1.48608L20.0212 8.08103L20.0217 8.08173C21.9397 10.5598 24.8223 12.239 28.0991 12.8167L28.1006 12.8225L28.4248 12.8709L34.2302 13.7388L34.2337 13.7519L34.5683 13.7932C35.0572 13.8534 35.4027 14.1627 35.503 14.537C35.6032 14.9112 35.4588 15.352 35.0652 15.6495L35.0651 15.6493L35.0554 15.6571L30.2052 19.5154L30.2038 19.5165C27.5121 21.673 25.7584 24.6543 25.3214 27.8602L25.2199 28.6053Z" fill="#FC8955" stroke="#FC8955"/>
</svg>
