<svg width="22" height="23" viewBox="0 0 22 23" fill="none" xmlns="http://www.w3.org/2000/svg">
<path d="M15.0496 17.5732L15.0518 17.5726L14.4951 21.7233C14.4951 21.724 14.495 21.7246 14.4949 21.7252C14.4702 21.8906 14.325 22.0723 14.0829 22.1372C13.8466 22.2005 13.6351 22.1217 13.5281 21.9968L13.5218 21.9887L10.5033 18.0745L10.5028 18.0738C9.29581 16.5144 7.46605 15.4791 5.40011 15.1627L5.39835 15.1625L1.774 14.6207C1.56291 14.5857 1.43708 14.4541 1.40139 14.3209C1.36571 14.1877 1.40925 14.01 1.57631 13.8738L1.59997 13.8545L4.44209 11.5936L4.44339 11.5926C6.07456 10.2861 7.14157 8.47453 7.40711 6.52055L7.50833 5.7757L7.50649 5.7762L8.05955 1.65206C8.10833 1.48795 8.2613 1.32673 8.49027 1.26537C8.71745 1.2045 8.92946 1.26653 9.05412 1.3831L12.0549 5.27433L12.0554 5.27504C13.1988 6.75227 14.9011 7.75918 16.8335 8.12978L16.8357 8.1379L17.1599 8.18636L20.4634 8.68021L20.4664 8.69165L20.801 8.73288C21.0177 8.75957 21.1466 8.89131 21.182 9.02336C21.2174 9.15534 21.1716 9.33415 20.997 9.46614L20.9969 9.46601L20.9872 9.47374L18.1167 11.7572L18.1153 11.7583C16.4848 13.0646 15.4174 14.8747 15.1512 16.8281L15.0496 17.5732Z" fill="#909AF2" stroke="#909AF2"/>
</svg>
